<svg width="179" height="31" viewBox="0 0 179 31" fill="none" xmlns="http://www.w3.org/2000/svg">
    <path d="M89.241 28.736c-.276-.044-.55-.098-.837-.134a11.31 11.31 0 0 1-6.872-3.748 11.124 11.124 0 0 1-2.751-7.29c-.018-4.923-.01-9.846-.01-14.76 0-1.536 1.071-2.665 2.618-2.759 1.321-.08 2.63 1.037 2.746 2.349.014.187.023.373.025.558v4.96c.097-.057.168-.092.233-.13a11.337 11.337 0 0 1 13.358 1.44c2.545 2.335 3.765 5.264 3.666 8.693-.15 5.228-4.12 9.739-9.31 10.631-.378.066-.761.1-1.143.146a.427.427 0 0 0-.097.045l-1.626-.001zm-5.217-11.252c-.033 3.167 2.557 5.956 5.939 6.028a6.103 6.103 0 0 0 4.374-1.716A6.001 6.001 0 0 0 96.18 17.5c.018-3.271-2.719-5.987-5.97-6.039-3.357-.044-6.206 2.674-6.185 6.024zM63.393 28.736c-.284-.046-.57-.098-.855-.138a11.346 11.346 0 0 1-6.837-3.727 11.162 11.162 0 0 1-.198-14.53 11.35 11.35 0 0 1 6.735-3.91 11.159 11.159 0 0 1 7.98 1.51l.187.116c.014.005.03.01.045.011.02-.042.043-.087.064-.134a2.238 2.238 0 0 1 1.925-1.454c.456-.048.916-.04 1.37.027.537.078 1.029.348 1.384.76.354.412.545.94.537 1.484v17.564a2.26 2.26 0 0 1-.67 1.597 2.306 2.306 0 0 1-1.608.67 6.272 6.272 0 0 1-1.32-.073c-.858-.184-1.4-.753-1.692-1.583a.77.77 0 0 0-.129.052 11.203 11.203 0 0 1-5.223 1.712c-.027 0-.05.03-.074.046h-1.62zm-5.23-11.239a6.013 6.013 0 0 0 1.83 4.269 6.108 6.108 0 0 0 8.63-.13 5.996 5.996 0 0 0 1.688-4.33c-.097-3.375-2.977-5.928-6.273-5.85-3.176.083-5.886 2.83-5.875 6.04v.001zM128.26 28.735c-.211-.03-.422-.068-.635-.088-4.831-.423-8.991-4.1-9.976-8.817-1.257-6.038 2.421-11.849 8.46-13.293 3.047-.73 5.936-.225 8.622 1.397l.175.11c.16-.279.337-.546.531-.801a2.028 2.028 0 0 1 1.39-.745c.787-.07 1.595-.144 2.312.316a2.183 2.183 0 0 1 1.068 1.687V26.552a2.205 2.205 0 0 1-1.654 1.927 5.33 5.33 0 0 1-1.386.09 2.956 2.956 0 0 1-1.005-.231c-.643-.273-1.023-.8-1.234-1.45a.28.28 0 0 0-.057.022 11.385 11.385 0 0 1-5.19 1.757c-.196.015-.393.048-.589.072l-.832-.004zm.455-5.255a6.078 6.078 0 0 0 4.34-1.734 5.983 5.983 0 0 0 1.803-4.284 5.987 5.987 0 0 0-1.803-4.284 6.1 6.1 0 0 0-4.335-1.743c-3.311 0-6.062 2.709-6.062 5.963a6.048 6.048 0 0 0 1.761 4.309 6.017 6.017 0 0 0 4.296 1.773z" fill="#fff"/>
    <path d="M.003 22.506c.044-.227.087-.453.133-.683.188-.98.666-1.88 1.37-2.583 1.029-1.037 2.072-2.058 3.108-3.085a.735.735 0 0 1 .067-.059l7.637 7.575-.149.156c-1.004.993-1.998 1.995-3.013 2.98a5.129 5.129 0 0 1-3.308 1.462c-2.975.24-5.612-2.321-5.8-4.953A.444.444 0 0 0 0 23.19l.003-.684z" fill="#ED764C"/>
    <path d="M140.249 26.543h-.043V8.506c.014 0 .029.003.043.008v18.03zM108.916 8.023c.722-.335 1.416-.683 2.141-.976a10.893 10.893 0 0 1 3.908-.708c.934-.008 1.607.595 1.652 1.531.037.722.037 1.445 0 2.166-.045.92-.706 1.498-1.639 1.521-2.319.06-4.09 1.082-5.262 3.065-.289.488-.442 1.057-.644 1.593-.031.119-.04.241-.029.363v9.67c.006.31-.051.617-.167.904a2.312 2.312 0 0 1-2.193 1.436 5.912 5.912 0 0 1-1.315-.092 2.251 2.251 0 0 1-1.712-2.198V8.775a2.284 2.284 0 0 1 .641-1.599c.417-.43.984-.683 1.582-.705.465-.032.932-.01 1.391.07a2.205 2.205 0 0 1 1.646 1.482z" fill="#fff"/>
    <path d="m21.006 14.508-7.3-7.242L21.032 0l7.301 7.241-7.328 7.267z" fill="#ED764C"/>
    <path d="M34.546 15.24v2.022a.504.504 0 0 1-.132.314c-.95.953-1.905 1.9-2.866 2.841a.523.523 0 0 1-.335.136c-1.358.01-2.717.01-4.076 0a.525.525 0 0 1-.335-.137 275.03 275.03 0 0 1-2.866-2.84.535.535 0 0 1-.134-.336 303.506 303.506 0 0 1 0-4.025.524.524 0 0 1 .137-.336c.948-.954 1.902-1.902 2.864-2.843a.578.578 0 0 1 .359-.15c1.339-.01 2.682-.01 4.028 0 .133.006.26.059.358.15.96.938 1.915 1.885 2.864 2.84a.54.54 0 0 1 .141.335c.002.68-.007 1.352-.007 2.03z" fill="#E95386"/>
    <path d="m29.815 23.53 7.632-7.566c.052.045.116.104.178.167l2.987 2.963a5.18 5.18 0 0 1 0 7.286c-.837.84-1.78 1.473-2.97 1.678-1.768.315-3.332-.124-4.633-1.357-1.06-1.007-2.077-2.047-3.112-3.078a.845.845 0 0 1-.082-.093z" fill="#ED764C"/>
    <path d="M12.664 20.463a5.29 5.29 0 0 1-3.744-1.527 5.235 5.235 0 0 1-1.16-5.729A5.233 5.233 0 0 1 8.9 11.5a5.305 5.305 0 0 1 3.747-1.551 5.313 5.313 0 0 1 4.918 3.245 5.224 5.224 0 0 1-1.153 5.737 5.322 5.322 0 0 1-3.743 1.532h-.005z" fill="#F49C1A"/>
    <path d="m150.919 22.324.131.16-2.17 1.8-.036.196h.001l.086.015c.535.096 1.018.183 1.377.343.186.083.323.179.413.292.087.11.14.248.14.435 0 .37-.14.664-.41.871-.276.213-.708.349-1.312.349-1.194 0-1.969-.497-2.48-1.132l-.131-.163-.157.138-.585.515-.148.131.129.15c.688.799 1.731 1.401 3.372 1.401.904 0 1.622-.238 2.118-.647a2.05 2.05 0 0 0 .758-1.613c0-.382-.092-.699-.258-.96a1.787 1.787 0 0 0-.664-.595c-.522-.285-1.199-.409-1.815-.514l-.121-.022c-.521-.093-.985-.177-1.332-.325a1.04 1.04 0 0 1-.403-.275.598.598 0 0 1-.134-.4c0-.34.102-.6.321-.78.227-.186.611-.314 1.232-.314.975 0 1.634.397 2.078.944zm2.401 5.163v.2h1.127v-3.982c0-1.293.998-2.275 2.319-2.275.737 0 1.291.23 1.662.614.371.385.58.947.58 1.649v3.994h1.153v-3.994c0-1.017-.319-1.853-.903-2.437-.583-.582-1.41-.892-2.388-.892-1.006 0-1.866.39-2.436 1.01v-3.988H153.32V27.487zM171.72 30v-3.337c.675.757 1.704 1.162 2.644 1.162 2.249 0 3.836-1.58 3.836-3.73 0-2.113-1.665-3.731-3.81-3.731-.969 0-2.011.412-2.683 1.183v-1.045h-1.115V30.2h1.128V30zm-6.404-2.175c2.197 0 3.849-1.643 3.849-3.73 0-2.115-1.68-3.731-3.849-3.731-2.17 0-3.836 1.617-3.836 3.73 0 2.152 1.627 3.731 3.836 3.731zm0-1.078c-1.529 0-2.67-1.095-2.67-2.652 0-1.511 1.144-2.665 2.67-2.665 1.527 0 2.683 1.155 2.683 2.665 0 1.52-1.142 2.652-2.683 2.652zm9.048 0c-1.555 0-2.722-1.182-2.722-2.652 0-1.46 1.169-2.665 2.722-2.665 1.525 0 2.67 1.154 2.67 2.665 0 1.557-1.141 2.652-2.67 2.652z" fill="#fff" stroke="#fff" stroke-width=".4"/>
</svg>
